<svg xmlns="http://www.w3.org/2000/svg" xmlns:xlink="http://www.w3.org/1999/xlink" viewBox="0 0 717.76 609.04"><defs><style>.cls-1{fill:url(#未命名的渐变_46);}.cls-2{fill:#060608;}.cls-3{fill:url(#未命名的渐变_38);}.cls-4{fill:url(#未命名的渐变_38-2);}.cls-5{fill:url(#未命名的渐变_38-3);}.cls-6{fill:url(#未命名的渐变_38-4);}</style><linearGradient id="未命名的渐变_46" x1="358.88" y1="603.04" x2="358.88" y2="196.72" gradientUnits="userSpaceOnUse"><stop offset="0" stop-color="#0d0d11"/><stop offset="1" stop-color="#3a3a4c"/></linearGradient><linearGradient id="未命名的渐变_38" x1="58.39" y1="345.24" x2="659.29" y2="345.24" gradientUnits="userSpaceOnUse"><stop offset="0" stop-color="#303fff"/><stop offset="1" stop-color="#c947d9"/></linearGradient><linearGradient id="未命名的渐变_38-2" x1="366.2" y1="112.48" x2="366.2" y2="0" xlink:href="#未命名的渐变_38"/><linearGradient id="未命名的渐变_38-3" x1="228.88" y1="124.32" x2="149.34" y2="44.78" gradientTransform="translate(115.17 -108.96) rotate(45)" xlink:href="#未命名的渐变_38"/><linearGradient id="未命名的渐变_38-4" x1="493.9" y1="124.37" x2="573.43" y2="44.83" gradientTransform="translate(216.13 -352.58) rotate(45)" xlink:href="#未命名的渐变_38"/></defs><g id="图层_2" data-name="图层 2"><g id="图层_1-2" data-name="图层 1"><path class="cls-1" d="M63.89,603A58,58,0,0,1,6,545.15V393.4a58,58,0,0,1,7.32-28.18L90.65,226.43a57.92,57.92,0,0,1,50.57-29.71H576.61a57.92,57.92,0,0,1,50.58,29.73l77.26,138.78a58.06,58.06,0,0,1,7.31,28.16V545.15A58,58,0,0,1,653.87,603Z"/><path class="cls-2" d="M576.61,202.72a51.91,51.91,0,0,1,45.33,26.65l77.27,138.78a52,52,0,0,1,6.55,25.24V545.15A52,52,0,0,1,653.87,597h-590A52,52,0,0,1,12,545.15V393.4a52.07,52.07,0,0,1,6.56-25.26L95.89,229.35a51.91,51.91,0,0,1,45.33-26.63H576.61m0-12H141.22a63.9,63.9,0,0,0-55.81,32.79L8.08,362.3A63.87,63.87,0,0,0,0,393.4V545.15A63.88,63.88,0,0,0,63.89,609h590a63.88,63.88,0,0,0,63.89-63.89V393.39a63.89,63.89,0,0,0-8.07-31.08L632.43,223.53a63.9,63.9,0,0,0-55.82-32.81Z"/><path class="cls-3" d="M471.49,378.88a23.79,23.79,0,0,0-23.35,18.79,91.24,91.24,0,0,1-178.52,0,23.8,23.8,0,0,0-23.36-18.79H82.34a23.92,23.92,0,0,1-21.18-35l58-110.57a23.93,23.93,0,0,1,21.19-12.81H577.37a23.93,23.93,0,0,1,21.19,12.81l58,110.57a23.92,23.92,0,0,1-21.18,35Z"/><rect class="cls-4" x="350.56" width="31.28" height="112.48" rx="15.64"/><rect class="cls-5" x="173.47" y="28.31" width="31.28" height="112.48" rx="15.64" transform="translate(-4.4 158.49) rotate(-45)"/><rect class="cls-6" x="477.42" y="68.96" width="112.48" height="31.28" rx="15.64" transform="translate(96.49 402.14) rotate(-45)"/></g></g></svg>