<svg xmlns="http://www.w3.org/2000/svg" xmlns:xlink="http://www.w3.org/1999/xlink" viewBox="0 0 137.53 137.53"><defs><style>.cls-1{fill:url(#未命名的渐变_92);}</style><linearGradient id="未命名的渐变_92" x1="20.15" y1="117.38" x2="117.39" y2="20.14" gradientUnits="userSpaceOnUse"><stop offset="0" stop-color="#e6007a"/><stop offset="0" stop-color="#e6007a"/><stop offset="0.21" stop-color="#703ac2"/><stop offset="0.46" stop-color="#0070eb"/><stop offset="0.77" stop-color="#0297fb"/><stop offset="1" stop-color="#0ae2ff"/></linearGradient></defs><g id="图层_2" data-name="图层 2"><g id="图层_1-2" data-name="图层 1"><path d="M80.45,92a61.83,61.83,0,0,0,11.62-16.9,60,60,0,0,0,2.73-6.51c5.66,4.17,11.13,10.35,13.56,17.61a23.57,23.57,0,0,1-3.24,21.41A22,22,0,0,1,102,111l0,0a53.66,53.66,0,0,1-68.13-1.53c13,1.77,25.58-2.36,34.13-7.44,17,11.85,28.05,10.14,33.24,4,.14-.17.28-.34.41-.52A11.48,11.48,0,0,0,83.29,91.64,11.78,11.78,0,0,0,82.41,93c-.63-.32-1.28-.67-2-1.05m-20.16-21c-.11-.22-.22-.42-.33-.65a0,0,0,0,1,0,0,48.87,48.87,0,0,1-3.08-8.58,51.36,51.36,0,0,1,14.25-1.35l.72,0h0a48.57,48.57,0,0,1,9,1.61,51.7,51.7,0,0,1-6,13c-.14.2-.26.4-.4.6v0a48.92,48.92,0,0,1-5.89,7,51.26,51.26,0,0,1-8.28-11.66M33.89,94.35A23.54,23.54,0,0,1,17,80.84a22,22,0,0,1-1.41-4.46c-.18-1.31-.34-2.63-.43-4A53.84,53.84,0,0,1,51,18l0,.05c-8,10.41-10.74,23.34-10.62,33.28-18.76,8.8-22.79,19.22-20,26.79.07.21.15.41.24.62a11.49,11.49,0,1,0,21.19-8.87A11.61,11.61,0,0,0,41,68.46c.59-.38,1.23-.77,1.9-1.17a61.64,61.64,0,0,0,8.8,18.53,58.61,58.61,0,0,0,4.26,5.6,40.76,40.76,0,0,1-16,3.52,29.39,29.39,0,0,1-6-.59M64,25.78a23.56,23.56,0,0,1,20.16-7.9,21.87,21.87,0,0,1,4.57,1L89,19h0a53.74,53.74,0,0,1,32.63,59.78.19.19,0,0,1,0-.07h0c-5-12.19-14.85-21-23.52-25.85C99.8,32.18,92.8,23.48,84.87,22.06l-.65-.1a11.48,11.48,0,1,0-1.29,22.86c0,.7,0,1.44.06,2.21a61.47,61.47,0,0,0-20.43-1.6,59.24,59.24,0,0,0-7,.88c.78-7,3.39-14.8,8.47-20.53M64.1.16a68.49,68.49,0,0,0-47,23.25l0,0-.22.32A68.54,68.54,0,0,0,.16,73.43c.12,1.8.33,3.57.59,5.32h0l0,.23c.18,1.16.38,2.31.61,3.44h0s0,0,0,.06c.21,1,.44,2,.7,3.06h0A68.76,68.76,0,1,0,68.83,0c-1.57,0-3.14.05-4.73.16" transform="translate(0)"/><path class="cls-1" d="M80.45,92a61.83,61.83,0,0,0,11.62-16.9,60,60,0,0,0,2.73-6.51c5.66,4.17,11.13,10.35,13.56,17.61a23.57,23.57,0,0,1-3.24,21.41A22,22,0,0,1,102,111l0,0a53.66,53.66,0,0,1-68.13-1.53c13,1.77,25.58-2.36,34.13-7.44,17,11.85,28.05,10.14,33.24,4,.14-.17.28-.34.41-.52A11.48,11.48,0,0,0,83.29,91.64,11.78,11.78,0,0,0,82.41,93c-.63-.32-1.28-.67-2-1.05m-20.16-21c-.11-.22-.22-.42-.33-.65a0,0,0,0,1,0,0,48.87,48.87,0,0,1-3.08-8.58,51.36,51.36,0,0,1,14.25-1.35l.72,0h0a48.57,48.57,0,0,1,9,1.61,51.7,51.7,0,0,1-6,13c-.14.2-.26.4-.4.6v0a48.92,48.92,0,0,1-5.89,7,51.26,51.26,0,0,1-8.28-11.66M33.89,94.35A23.54,23.54,0,0,1,17,80.84a22,22,0,0,1-1.41-4.46c-.18-1.31-.34-2.63-.43-4A53.84,53.84,0,0,1,51,18l0,.05c-8,10.41-10.74,23.34-10.62,33.28-18.76,8.8-22.79,19.22-20,26.79.07.21.15.41.24.62a11.49,11.49,0,1,0,21.19-8.87A11.61,11.61,0,0,0,41,68.46c.59-.38,1.23-.77,1.9-1.17a61.64,61.64,0,0,0,8.8,18.53,58.61,58.61,0,0,0,4.26,5.6,40.76,40.76,0,0,1-16,3.52,29.39,29.39,0,0,1-6-.59M64,25.78a23.56,23.56,0,0,1,20.16-7.9,21.87,21.87,0,0,1,4.57,1L89,19h0a53.74,53.74,0,0,1,32.63,59.78.19.19,0,0,1,0-.07h0c-5-12.19-14.85-21-23.52-25.85C99.8,32.18,92.8,23.48,84.87,22.06l-.65-.1a11.48,11.48,0,1,0-1.29,22.86c0,.7,0,1.44.06,2.21a61.47,61.47,0,0,0-20.43-1.6,59.24,59.24,0,0,0-7,.88c.78-7,3.39-14.8,8.47-20.53M64.1.16a68.49,68.49,0,0,0-47,23.25l0,0-.22.32A68.54,68.54,0,0,0,.16,73.43c.12,1.8.33,3.57.59,5.32h0l0,.23c.18,1.16.38,2.31.61,3.44h0s0,0,0,.06c.21,1,.44,2,.7,3.06h0A68.76,68.76,0,1,0,68.83,0c-1.57,0-3.14.05-4.73.16" transform="translate(0)"/></g></g></svg>