<svg xmlns="http://www.w3.org/2000/svg" viewBox="0 0 24 24" class="design-iconfont">
  <g fill-rule="nonzero" fill="none">
    <path fill="#020F0F" d="M12 0A12 12 0 1 0 12 24A12 12 0 1 0 12 0Z"/>
    <path fill="#ffffff" d="M16.5087273 5.964A1.54581818 1.54581818 0 1 0 16.5087273 9.05563636A1.54581818 1.54581818 0 1 0 16.5087273 5.964Z"/>
    <path fill="#ffffff" d="M16.9865455 11.5149091A1 1 0 1 0 16.9865455 13.5149091A1 1 0 1 0 16.9865455 11.5149091Z"/>
    <path d="M13.0483636,6.95780627 C13.3763968,6.95737698 13.6723547,7.15469815 13.7980914,7.45767706 C13.9238282,7.76065597 13.8545507,8.10955041 13.622596,8.34150509 C13.3906413,8.57345977 13.0417469,8.64273724 12.738768,8.51700049 C12.4357891,8.39126374 12.2384679,8.09530589 12.2388972,7.76727273 C12.2377404,7.55223588 12.3226466,7.34566822 12.4747029,7.19361196 C12.6267591,7.0415557 12.8333268,6.95664948 13.0483636,6.95780627 L13.0483636,6.95780627 Z" fill="#ffffff"/>
    <path d="M8.50909091,5.89090547 C9.58123765,5.88914351 10.5487959,6.53363037 10.9603127,7.5236585 C11.3718295,8.51368663 11.1462006,9.65413566 10.3887024,10.4128834 C9.6312041,11.1716311 8.49112849,11.3991393 7.50042347,10.9892548 C6.50971845,10.5793702 5.86363636,9.61287547 5.86363636,8.54072727 C5.86423471,7.07922396 7.04759057,5.89391618 8.50909091,5.89090547 Z" fill="#ffffff"/>
    <path fill="#ffffff" d="M9.00109091 11.98145457A3.02727273 3.02727273 0 1 0 9.00109091 18.03600003A3.02727273 3.02727273 0 1 0 9.00109091 11.98145457Z"/>
    <path fill="#ffffff" d="M13.8218182 9.51490905A1.79454545 1.79454545 0 1 0 13.8218182 13.103999949999999A1.79454545 1.79454545 0 1 0 13.8218182 9.51490905Z"/>
    <path d="M16.0483636,18.1090912 C15.2032069,18.1095321 14.4410448,17.6007033 14.1174134,16.8199645 C13.7937821,16.0392258 13.9724465,15.1404061 14.5700627,14.5427899 C15.1676788,13.9451738 16.0664986,13.7665094 16.8472373,14.0901407 C17.627976,14.413772 18.1368049,15.1759341 18.1363639,16.0210909 C18.1363639,17.1742615 17.2015342,18.1090912 16.0483636,18.1090912 Z" fill="#ffffff"/>
  </g>
</svg>
