<svg  xmlns="http://www.w3.org/2000/svg" xmlns:xlink="http://www.w3.org/1999/xlink" width="112px" height="29px"><path fill-rule="evenodd"  fill="rgb(27, 211, 213)" d="M104.319,24.769 C99.738,26.504 93.749,24.610 91.469,19.052 C89.435,14.092 91.496,8.144 96.131,5.545 C102.617,1.907 110.632,6.318 111.009,13.734 C111.024,14.043 111.011,14.354 111.011,14.664 C111.005,19.388 108.501,23.185 104.319,24.769 ZM102.198,11.778 C101.161,11.214 100.100,11.350 99.113,11.951 C97.678,12.823 97.240,14.991 98.087,16.897 C98.625,18.105 99.603,18.721 100.891,18.664 C102.647,18.585 103.926,17.052 103.921,14.840 C103.854,13.675 103.466,12.467 102.198,11.778 ZM89.559,9.752 C89.547,9.850 89.500,9.943 89.441,10.125 C87.778,9.837 86.203,9.918 84.677,10.539 C82.556,11.402 81.312,13.699 81.758,15.954 C82.019,17.275 83.140,18.173 84.665,18.300 C86.092,18.418 87.425,18.059 88.725,17.521 C89.145,17.347 89.556,17.148 90.075,16.913 C89.966,18.248 89.868,19.476 89.764,20.703 C89.675,21.759 89.599,22.817 89.473,23.868 C89.444,24.106 89.285,24.444 89.094,24.529 C85.134,26.301 80.272,26.463 76.780,23.016 C74.421,20.687 73.706,17.770 73.978,14.558 C74.288,10.907 75.434,7.597 78.354,5.206 C81.733,2.439 85.594,1.965 89.728,3.136 C90.293,3.296 90.408,3.572 90.319,4.145 C90.028,6.008 89.809,7.883 89.559,9.752 ZM74.528,24.618 C73.550,24.747 72.594,24.870 71.638,24.999 C70.207,25.191 68.774,25.370 67.346,25.589 C66.819,25.669 66.545,25.553 66.431,24.984 C66.263,24.149 66.039,23.322 65.769,22.514 C65.699,22.305 65.376,22.058 65.157,22.044 C64.282,21.990 63.401,22.044 62.526,22.012 C62.088,21.997 61.954,22.189 61.877,22.579 C61.682,23.565 61.446,24.544 61.197,25.654 C59.642,25.507 58.156,25.370 56.671,25.225 C55.927,25.153 55.173,24.947 54.442,25.012 C53.997,25.051 53.554,25.105 53.112,25.165 L52.847,25.202 C51.964,25.329 51.084,25.485 50.203,25.629 C48.957,25.834 47.711,26.047 46.476,26.311 C45.982,26.417 45.728,26.257 45.461,25.869 C44.186,24.018 42.885,22.184 41.591,20.345 C41.449,20.142 41.288,19.951 40.984,19.560 C40.887,22.059 40.799,24.335 40.707,26.707 C38.489,26.802 36.335,26.895 34.038,26.995 C34.211,18.772 34.383,10.601 34.556,2.355 C37.072,2.484 39.484,2.608 42.020,2.738 C41.843,5.070 41.670,7.338 41.497,9.606 C41.549,9.624 41.600,9.642 41.652,9.660 C41.794,9.463 41.944,9.271 42.076,9.068 C43.413,7.008 44.758,4.954 46.074,2.882 C46.329,2.481 46.586,2.348 47.074,2.392 C49.488,2.607 51.906,2.773 54.474,2.967 C54.258,3.290 54.103,3.538 53.933,3.775 C51.710,6.854 49.493,9.939 47.249,13.004 C46.902,13.477 46.829,13.817 47.150,14.366 C48.964,17.466 50.726,20.597 52.508,23.717 C52.658,23.979 52.821,24.233 53.065,24.631 C53.202,24.210 53.293,23.948 53.372,23.683 C55.299,17.217 57.233,10.754 59.136,4.282 C59.325,3.639 59.587,3.394 60.287,3.373 C62.737,3.298 65.184,3.141 67.632,2.999 C68.051,2.974 68.342,2.971 68.492,3.494 C70.468,10.403 72.467,17.305 74.460,24.209 C74.488,24.306 74.494,24.409 74.528,24.618 ZM63.968,11.982 C63.902,11.980 63.837,11.977 63.771,11.975 C63.417,13.647 63.064,15.319 62.705,17.020 C63.539,17.020 64.268,17.020 65.068,17.020 C64.691,15.292 64.329,13.637 63.968,11.982 ZM24.086,28.998 C21.391,28.998 19.206,26.809 19.206,24.108 C19.206,21.408 21.391,19.218 24.086,19.218 C26.782,19.218 28.967,21.408 28.967,24.108 C28.967,26.809 26.782,28.998 24.086,28.998 ZM26.289,14.546 C27.023,14.546 27.618,15.142 27.618,15.878 C27.618,16.614 27.023,17.211 26.289,17.211 C25.554,17.211 24.960,16.614 24.960,15.878 C24.960,15.142 25.554,14.546 26.289,14.546 ZM25.165,7.782 C23.164,7.782 21.542,6.156 21.542,4.151 C21.542,2.146 23.164,0.520 25.165,0.520 C27.166,0.520 28.789,2.146 28.789,4.151 C28.789,6.156 27.166,7.782 25.165,7.782 ZM18.871,17.262 C16.550,17.262 14.669,15.377 14.669,13.052 C14.669,10.727 16.550,8.842 18.871,8.842 C21.191,8.842 23.073,10.727 23.073,13.052 C23.073,15.377 21.191,17.262 18.871,17.262 ZM17.055,6.646 C16.005,6.646 15.154,5.794 15.154,4.742 C15.154,3.690 16.005,2.838 17.055,2.838 C18.104,2.838 18.956,3.690 18.956,4.742 C18.956,5.794 18.104,6.646 17.055,6.646 ZM6.449,12.772 C3.025,12.772 0.250,9.992 0.250,6.562 C0.250,3.132 3.025,0.351 6.449,0.351 C9.872,0.351 12.647,3.132 12.647,6.562 C12.647,9.992 9.872,12.772 6.449,12.772 ZM7.591,14.649 C11.500,14.649 14.669,17.825 14.669,21.742 C14.669,25.659 11.500,28.834 7.591,28.834 C3.681,28.834 0.512,25.659 0.512,21.742 C0.512,17.825 3.681,14.649 7.591,14.649 Z"/></svg>