<svg xmlns="http://www.w3.org/2000/svg" xmlns:xlink="http://www.w3.org/1999/xlink" viewBox="0 0 154.76 227.73"><defs><style>.cls-1{fill:#fff;}.cls-2{fill:url(#未命名的渐变_30);}</style><linearGradient id="未命名的渐变_30" x1="14.42" y1="175.79" x2="138.27" y2="51.94" gradientUnits="userSpaceOnUse"><stop offset="0" stop-color="#007bff"/><stop offset="0.5" stop-color="#ff79f4"/><stop offset="1" stop-color="#00fff6"/></linearGradient></defs><g id="图层_2" data-name="图层 2"><g id="图层_1-2" data-name="图层 1"><path class="cls-1" d="M86.32,12.31,96.56,22.54l-74,74L12.31,86.32l74-74M86.32,0,0,86.32l22.54,22.54,86.32-86.32L86.32,0Z"/><path class="cls-1" d="M92,60.85l10.23,10.24-74,74L18,134.87l74-74m0-12.31L5.69,134.87l22.54,22.54,86.32-86.32L92,48.54Z"/><path class="cls-1" d="M132.21,74.87l10.24,10.24-74,74L58.2,148.89l74-74m0-12.3L45.89,148.89l22.55,22.54,86.32-86.32L132.21,62.57Z"/><path class="cls-1" d="M130.14,131.17l10.24,10.24-74,74L56.13,205.19l74-74m0-12.3L43.82,205.19l22.55,22.54,86.32-86.32-22.55-22.54Z"/><path class="cls-2" d="M86.32,12.31,96.56,22.54l-74,74L12.31,86.32l74-74M86.32,0,0,86.32l22.54,22.54,86.32-86.32L86.32,0Z"/><path class="cls-2" d="M92,60.85l10.23,10.24-74,74L18,134.87l74-74m0-12.31L5.69,134.87l22.54,22.54,86.32-86.32L92,48.54Z"/><path class="cls-2" d="M132.21,74.87l10.24,10.24-74,74L58.2,148.89l74-74m0-12.3L45.89,148.89l22.55,22.54,86.32-86.32L132.21,62.57Z"/><path class="cls-2" d="M130.14,131.17l10.24,10.24-74,74L56.13,205.19l74-74m0-12.3L43.82,205.19l22.55,22.54,86.32-86.32-22.55-22.54Z"/></g></g></svg>